<?xml version="1.0" encoding="utf-8"?>
<!-- Generator: Adobe Illustrator 14.0.0, SVG Export Plug-In . SVG Version: 6.00 Build 43363)  -->
<!DOCTYPE svg PUBLIC "-//W3C//DTD SVG 1.1//EN" "http://www.w3.org/Graphics/SVG/1.1/DTD/svg11.dtd">
<svg version="1.1" id="Layer_1" xmlns="http://www.w3.org/2000/svg" xmlns:xlink="http://www.w3.org/1999/xlink" x="0px" y="0px"
	 width="372.667px" height="29px" viewBox="-75.333 0 372.667 29" enable-background="new -75.333 0 372.667 29"
	 xml:space="preserve">
<title>logo</title>
<desc>Created with Sketch.</desc>
<g>
	<path d="M-72.665,26.932V2.42h4.682l5.779,10.511c1.462,2.728,2.791,5.563,3.82,8.219h0.066c-0.299-3.273-0.365-6.436-0.365-10.183
		V2.42h3.785v24.512h-4.25l-5.846-10.801c-1.428-2.692-2.889-5.674-3.986-8.438l-0.132,0.036c0.167,3.164,0.233,6.401,0.233,10.438
		v8.765H-72.665z"/>
	<path d="M-36.834,16.058h-8.435v7.201h9.431v3.673h-13.516V2.42h13.018v3.673h-8.933v6.328h8.435V16.058z"/>
	<path d="M-27.371,2.42v14.293c0,4.801,1.827,7.02,4.583,7.02c2.956,0,4.716-2.219,4.716-7.02V2.42h4.085v14.001
		c0,7.565-3.553,10.912-8.934,10.912c-5.18,0-8.535-3.165-8.535-10.875V2.42H-27.371z"/>
	<path d="M-8.544,22.059c1.296,0.836,3.323,1.564,5.415,1.564c2.589,0,4.051-1.346,4.051-3.347c0-1.854-1.129-2.946-3.952-4.072
		c-3.719-1.456-6.077-3.602-6.077-7.129c0-4.037,3.055-7.055,7.937-7.055c2.424,0,4.184,0.582,5.347,1.236l-0.964,3.6
		C2.383,6.384,0.822,5.693-1.27,5.693c-2.59,0-3.686,1.491-3.686,2.946c0,1.89,1.294,2.764,4.284,4.036
		c3.884,1.601,5.745,3.746,5.745,7.274c0,3.964-2.723,7.384-8.468,7.384c-2.393,0-4.85-0.728-6.078-1.564L-8.544,22.059z"/>
	<path d="M13.872,6.166H7.496V2.42h16.904v3.746h-6.443v20.766h-4.084V6.166z"/>
	<path d="M29.911,19.986l-1.927,6.945h-4.218L30.94,2.42h5.214l7.271,24.512H39.01l-2.026-6.945H29.911z M36.32,16.603l-1.76-6.036
		c-0.432-1.491-0.797-3.165-1.128-4.583h-0.067c-0.332,1.418-0.697,3.128-1.063,4.583l-1.727,6.036H36.32z"/>
	<path d="M48.971,6.166h-6.376V2.42h16.903v3.746h-6.442v20.766h-4.085V6.166z"/>
	<path d="M67.002,2.42v14.293c0,4.801,1.827,7.02,4.583,7.02c2.956,0,4.716-2.219,4.716-7.02V2.42h4.083v14.001
		c0,7.565-3.552,10.912-8.933,10.912c-5.18,0-8.535-3.165-8.535-10.875V2.42H67.002z"/>
	<path d="M85.829,22.059c1.295,0.836,3.321,1.564,5.414,1.564c2.59,0,4.051-1.346,4.051-3.347c0-1.854-1.129-2.946-3.952-4.072
		c-3.719-1.456-6.077-3.602-6.077-7.129c0-4.037,3.055-7.055,7.937-7.055c2.424,0,4.184,0.582,5.347,1.236l-0.964,3.6
		c-0.83-0.472-2.39-1.163-4.482-1.163c-2.591,0-3.687,1.491-3.687,2.946c0,1.89,1.294,2.764,4.284,4.036
		c3.885,1.601,5.745,3.746,5.745,7.274c0,3.964-2.723,7.384-8.469,7.384c-2.391,0-4.848-0.728-6.076-1.564L85.829,22.059z"/>
	<path fill="#7783D9" d="M120.001,26.241c-0.962,0.509-3.088,1.092-5.812,1.092c-7.106,0-11.423-4.874-11.423-12.367
		c0-8.073,5.146-12.946,11.987-12.946c2.689,0,4.583,0.618,5.413,1.09l-0.864,3.564c-1.062-0.509-2.557-0.945-4.382-0.945
		c-4.55,0-7.838,3.127-7.838,9.019c0,5.419,2.855,8.837,7.803,8.837c1.629,0,3.354-0.364,4.451-0.873L120.001,26.241z"/>
	<path fill="#7783D9" d="M143.312,14.422c0,8.219-4.547,12.911-10.692,12.911c-6.343,0-10.328-5.311-10.328-12.475
		c0-7.565,4.351-12.875,10.663-12.875C139.46,1.983,143.312,7.402,143.312,14.422z M126.607,14.749c0,5.019,2.293,8.984,6.212,8.984
		c3.952,0,6.177-4.037,6.177-9.166c0-4.619-2.092-8.983-6.177-8.983C128.768,5.584,126.607,9.693,126.607,14.749z"/>
	<path fill="#7783D9" d="M147.627,26.932V2.42h4.682l5.78,10.511c1.461,2.728,2.788,5.563,3.818,8.219h0.067
		c-0.302-3.273-0.366-6.436-0.366-10.183V2.42h3.786v24.512h-4.253l-5.844-10.801c-1.429-2.692-2.889-5.674-3.984-8.438
		l-0.134,0.036c0.167,3.164,0.234,6.401,0.234,10.438v8.765H147.627z"/>
	<path fill="#7783D9" d="M170.873,22.059c1.295,0.836,3.32,1.564,5.412,1.564c2.592,0,4.052-1.346,4.052-3.347
		c0-1.854-1.127-2.946-3.95-4.072c-3.722-1.456-6.077-3.602-6.077-7.129c0-4.037,3.055-7.055,7.938-7.055
		c2.422,0,4.184,0.582,5.345,1.236l-0.962,3.6c-0.831-0.472-2.392-1.163-4.483-1.163c-2.589,0-3.688,1.491-3.688,2.946
		c0,1.89,1.296,2.764,4.285,4.036c3.886,1.601,5.744,3.746,5.744,7.274c0,3.964-2.724,7.384-8.469,7.384
		c-2.391,0-4.85-0.728-6.077-1.564L170.873,22.059z"/>
	<path fill="#7783D9" d="M193.057,2.42v14.293c0,4.801,1.826,7.02,4.581,7.02c2.957,0,4.715-2.219,4.715-7.02V2.42h4.087v14.001
		c0,7.565-3.554,10.912-8.933,10.912c-5.182,0-8.536-3.165-8.536-10.875V2.42H193.057z"/>
	<path fill="#7783D9" d="M211.949,2.42h4.083v20.767h9.199v3.745h-13.282V2.42z"/>
	<path fill="#7783D9" d="M230.213,6.166h-6.378V2.42h16.904v3.746h-6.44v20.766h-4.086V6.166z"/>
	<path fill="#7783D9" d="M248.276,2.42v24.512h-4.085V2.42H248.276z"/>
	<path fill="#7783D9" d="M253.756,26.932V2.42h4.682l5.779,10.511c1.462,2.728,2.789,5.563,3.819,8.219h0.065
		c-0.299-3.273-0.364-6.436-0.364-10.183V2.42h3.784v24.512h-4.25l-5.846-10.801c-1.428-2.692-2.888-5.674-3.985-8.438l-0.132,0.036
		c0.166,3.164,0.234,6.401,0.234,10.438v8.765H253.756z"/>
	<path fill="#7783D9" d="M295,25.806c-1.428,0.581-4.219,1.381-7.175,1.381c-3.785,0-6.675-1.054-8.799-3.273
		c-1.993-2.072-3.122-5.31-3.122-9.019c0.033-7.783,5.047-12.729,12.451-12.729c2.757,0,4.916,0.619,5.945,1.164l-0.896,3.601
		c-1.229-0.618-2.722-1.056-5.081-1.056c-4.784,0-8.135,3.092-8.135,8.802c0,5.565,3.12,8.875,7.77,8.875
		c1.494,0,2.558-0.219,3.089-0.474v-6.146h-3.952v-3.529H295V25.806z"/>
</g>
</svg>
